<svg width="24" height="24" xmlns="http://www.w3.org/2000/svg">

 <mask height="12" width="16" y="6" x="4" maskUnits="userSpaceOnUse" id="mask0">
  <path id="svg_1" fill="white" d="m18.6343,6.63431c0.3124,-0.31242 0.819,-0.31242 1.1314,0c0.3124,0.31242 0.3124,0.81895 0,1.13137l-9.6,9.60002c-0.31245,0.3124 -0.81898,0.3124 -1.1314,0l-4,-4c-0.31242,-0.3124 -0.31242,-0.819 0,-1.1314c0.31242,-0.3124 0.81895,-0.3124 1.13137,0l3.43432,3.4343l9.03431,-9.03429z"/>
 </mask>
 <g>
  <rect fill="none" id="canvas_background" height="602" width="802" y="-1" x="-1"/>
 </g>
 <g>
  <path id="svg_2" fill="black" d="m18.6343,6.63431c0.3124,-0.31242 0.819,-0.31242 1.1314,0c0.3124,0.31242 0.3124,0.81895 0,1.13137l-9.6,9.60002c-0.31245,0.3124 -0.81898,0.3124 -1.1314,0l-4,-4c-0.31242,-0.3124 -0.31242,-0.819 0,-1.1314c0.31242,-0.3124 0.81895,-0.3124 1.13137,0l3.43432,3.4343l9.03431,-9.03429z"/>
  <g id="svg_3" mask="url(#mask0)">
   <rect id="svg_4" fill="#0880AE" height="24" width="24"/>
  </g>
 </g>
</svg>