<svg width="30" height="30" xmlns="http://www.w3.org/2000/svg">

 <mask height="9" width="16" y="11" x="7" maskUnits="userSpaceOnUse" id="mask0">
  <path id="svg_1" fill="white" d="m15,17.5858l6.2929,-6.2929c0.3905,-0.3905 1.0237,-0.3905 1.4142,0c0.3905,0.3905 0.3905,1.0237 0,1.4142l-7,7c-0.3905,0.3905 -1.0237,0.3905 -1.4142,0l-7.00001,-7c-0.39052,-0.3905 -0.39052,-1.0237 0,-1.4142c0.39053,-0.3905 1.02369,-0.3905 1.41422,0l6.29289,6.2929z"/>
 </mask>
 <g>
  <rect fill="none" id="canvas_background" height="602" width="802" y="-1" x="-1"/>
 </g>
 <g>
  <path id="svg_2" fill="black" d="m15,17.5858l6.2929,-6.2929c0.3905,-0.3905 1.0237,-0.3905 1.4142,0c0.3905,0.3905 0.3905,1.0237 0,1.4142l-7,7c-0.3905,0.3905 -1.0237,0.3905 -1.4142,0l-7.00001,-7c-0.39052,-0.3905 -0.39052,-1.0237 0,-1.4142c0.39053,-0.3905 1.02369,-0.3905 1.41422,0l6.29289,6.2929z"/>
  <g id="svg_3" mask="url(#mask0)">
   <rect id="svg_4" fill="#0880AE" height="30" width="30"/>
  </g>
 </g>
</svg>